<svg enable-background="new 0 0 512.002 512.002" height="512" viewBox="0 0 512.002 512.002" width="512" xmlns="http://www.w3.org/2000/svg">
    <g>
        <g clip-rule="evenodd" fill-rule="evenodd">
            <path d="m476.001 60h-440l40 392.002h360zm-338.8 173.433 59.4-102.884 59.4 102.884 59.4-102.884 59.4 102.884 59.4 102.884-59.4 102.884-59.4-102.884-59.4 102.884-59.4-102.884-59.4 102.884-59.4-102.884z" fill="transparent"/>
            <path d="m256.001 233.433-59.4-102.884-59.4 102.884 59.4 102.883z" fill="transparent"/>
            <path d="m315.401 130.549-59.4 102.884 59.4 102.883 59.4-102.883z" fill="transparent"/>
            <path d="m374.801 233.433-59.4 102.883 59.4 102.884 59.4-102.884z" fill="transparent"/>
            <path d="m315.401 336.316-59.4-102.883-59.4 102.883 59.4 102.884z" fill="transparent"/>
            <path d="m196.601 336.316-59.4-102.883-59.4 102.883 59.4 102.884z" fill="transparent"/>
        </g>
        <path d="m456 0h-399.999c-16.542 0-30 13.458-30 30v30c0 .339.018.678.052 1.015l39.947 391.496v49.491c0 5.523 4.478 10 10 10h360.001c5.522 0 10-4.477 10-10v-49.491l39.947-391.496c.035-.338.052-.677.052-1.015v-30c0-16.542-13.458-30-30-30zm.797 149.686-11.049-19.137 15.793-27.354zm-68.831 292.316-1.618-2.802 47.853-82.884 1.201 2.081c.026.045.059.083.085.127l-8.518 83.478zm-.27-372.002 34.958 60.55-47.853 82.884-47.853-82.885 34.958-60.549zm23.094 0h46.823l-23.412 40.55zm-95.389 246.317-47.853-82.885 47.853-82.884 47.854 82.885zm59.4-62.884 47.853 82.884-47.852 82.883-47.853-82.884zm-226.053-20 47.854-82.885 47.853 82.884-47.854 82.885zm36.306 102.883-47.853 82.884-47.853-82.884 47.853-82.884zm70.947-82.884 47.853 82.885-47.853 82.885-47.853-82.885zm59.4-142.884-23.411-40.548h46.822zm-46.505-40.548 34.958 60.549-47.853 82.884-47.853-82.884 34.958-60.549zm-72.295 40.548-23.411-40.548h46.822zm-46.505-40.548 34.958 60.549-47.853 82.885-47.853-82.884 34.958-60.55zm-72.295 40.549-23.411-40.549h46.823zm-27.34-7.354 15.793 27.354-11.049 19.138zm8.295 80.34 19.045-32.986 47.853 82.884-47.853 82.884-5.436-9.416c-.374-.647-.813-1.231-1.298-1.76l-12.395-121.48c.026-.044.059-.081.084-.126zm26.276 258.467-8.518-83.477c.026-.044.059-.082.085-.127l1.202-2.082 47.853 82.884-1.618 2.802zm65.333 0-1.618-2.802 47.853-82.884 47.854 82.885-1.617 2.801zm118.8 0-1.617-2.801 47.853-82.885 47.853 82.884-1.618 2.802zm171.77-136.861c-.485.529-.924 1.113-1.298 1.76l-5.436 9.415-47.853-82.884 47.853-82.884 19.044 32.986c.026.045.059.082.085.126zm-394.934-275.141c0-5.514 4.486-10 10-10h399.999c5.514 0 10 4.486 10 10v20h-419.999zm39.999 462.002v-30h340.001v30z" fill="black"/>
    </g>
</svg>