<svg xmlns="http://www.w3.org/2000/svg" viewBox="0 0 10000 10000" preserveAspectRatio="xMidYMid meet">
    <path d="M4620 9604 c-710 -46 -1270 -187 -1900 -479 -592 -274 -1323 -769 -1719 -1166 -485 -485 -713 -1005 -801 -1832 -84 -783 -26 -1407 181 -1953 103 -271 286 -612 487 -909 715 -1058 1735 -1885 2827 -2290 793 -295 1612 -361 2400 -194 987 208 1872 792 2540 1674 111 146 250 356 345 520 67 116 240 457 240 473 0 5 12 13 26 16 34 9 60 38 144 161 409 602 504 1409 270 2310 -288 1111 -1056 2160 -2082 2844 -668 445 -1471 727 -2298 805 -154 15 -555 27 -660 20z m720 -308 c1002 -125 1876 -513 2607 -1158 496 -438 965 -1075 1242 -1690 287 -637 388 -1222 310 -1783 -10 -69 -15 -85 -29 -85 -10 0 -22 -6 -28 -12 -5 -7 -29 -85 -51 -173 -23 -88 -68 -243 -102 -345 -58 -176 -65 -191 -146 -313 l-86 -127 6 -52 c6 -50 4 -57 -68 -194 -383 -732 -893 -1315 -1525 -1743 -547 -371 -1132 -588 -1772 -657 -183 -20 -577 -22 -753 -5 -585 58 -1097 206 -1633 471 -1043 514 -1940 1400 -2488 2455 -411 792 -504 1789 -255 2760 49 191 96 315 182 486 302 597 891 1121 1825 1623 380 204 744 344 1144 440 234 57 439 89 755 120 22 2 195 3 385 1 249 -2 383 -7 480 -19z"/>
    <path d="M4810 6891 c-209 -45 -404 -163 -547 -330 -184 -215 -331 -507 -388 -771 -34 -156 -29 -478 7 -502 23 -14 65 -8 83 12 14 16 20 46 26 131 19 264 119 526 302 799 82 122 234 279 320 329 137 80 323 117 503 100 452 -42 742 -284 853 -712 45 -174 55 -276 55 -595 l1 -304 28 -24 c53 -45 174 -25 206 35 29 53 49 477 32 666 -34 376 -139 634 -340 836 -151 150 -325 245 -571 311 -105 28 -131 31 -300 34 -152 3 -200 1 -270 -15z"/>
    <path d="M2493 4503 c-35 -7 -71 -47 -83 -94 -15 -55 -6 -183 20 -282 10 -40 26 -99 35 -132 55 -209 188 -352 370 -400 151 -39 311 8 425 124 124 127 195 345 170 524 -13 91 -35 128 -85 145 -85 28 -128 -7 -150 -122 -50 -262 -137 -436 -219 -436 -50 0 -133 46 -189 103 -96 97 -147 246 -147 422 0 99 -9 121 -55 141 -34 14 -50 15 -92 7z"/>
    <path d="M7453 4215 c-47 -20 -63 -53 -73 -154 -25 -238 -91 -365 -204 -389 -154 -33 -235 76 -271 363 -8 57 -45 105 -81 105 -13 0 -26 5 -29 10 -9 15 -78 12 -102 -5 -34 -24 -46 -78 -39 -169 14 -183 70 -313 186 -426 101 -99 151 -124 257 -128 226 -10 406 124 490 365 24 70 27 92 28 213 0 110 -3 142 -18 171 -28 56 -80 72 -144 44z"/>
</svg>